HIERARCHY
ROOT Hips
{
	OFFSET 0.00000 0.00000 0.00000
	CHANNELS 6 Xposition Yposition Zposition Zrotation Yrotation Xrotation 
	JOINT LHipJoint
	{
		OFFSET 0 0 0
		CHANNELS 3 Zrotation Yrotation Xrotation
		JOINT LeftHip
		{
			OFFSET 1.26600 -1.82114 0.91038
			CHANNELS 3 Zrotation Yrotation Xrotation
			JOINT LeftKnee
			{
				OFFSET 2.50076 -6.87080 0.00000
				CHANNELS 3 Zrotation Yrotation Xrotation
				JOINT LeftAnkle
				{
					OFFSET 2.57364 -7.07102 0.00000
					CHANNELS 3 Zrotation Yrotation Xrotation
					JOINT LeftToe
					{
						OFFSET 0.13572 -0.37290 1.97004
						CHANNELS 3 Zrotation Yrotation Xrotation
						End Site
						{
							OFFSET 0.00000 -0.00000 1.01383
						}
					}
				}
			}
		}
	}
	JOINT RHipJoint
	{
		OFFSET 0 0 0
		CHANNELS 3 Zrotation Yrotation Xrotation
		JOINT RightHip
		{
			OFFSET -1.20803 -1.82114 0.91038
			CHANNELS 3 Zrotation Yrotation Xrotation
			JOINT RightKnee
			{
				OFFSET -2.54916 -7.00377 0.00000
				CHANNELS 3 Zrotation Yrotation Xrotation
				JOINT RightAnkle
				{
					OFFSET -2.56374 -7.04382 0.00000
					CHANNELS 3 Zrotation Yrotation Xrotation
					JOINT RightToe
					{
						OFFSET -0.23520 -0.64621 2.09921
						CHANNELS 3 Zrotation Yrotation Xrotation
						End Site
						{
							OFFSET -0.00000 -0.00000 1.10065
						}
					}
				}
			}
		}
	}
	JOINT lowerback
	{
		OFFSET 0 0 0
		CHANNELS 3 Zrotation Yrotation Xrotation
		JOINT Chest
		{
			OFFSET 0.05492 2.10797 -0.12074
			CHANNELS 3 Zrotation Yrotation Xrotation
			JOINT Chest2
			{
				OFFSET 0.04577 2.11592 -0.04483
				CHANNELS 3 Zrotation Yrotation Xrotation
				JOINT lowerneck
				{
					OFFSET 0 0 0
					CHANNELS 3 Zrotation Yrotation Xrotation
					JOINT Neck
					{
						OFFSET -0.10759 1.80167 0.15770
						CHANNELS 3 Zrotation Yrotation Xrotation
						JOINT Head
						{
							OFFSET 0.09237 1.77509 -0.40848
							CHANNELS 3 Zrotation Yrotation Xrotation
							End Site
							{
								OFFSET 0.03805 1.84093 -0.15754
							}
						}
					}
				}
				JOINT LeftCollar
				{
					OFFSET 0 0 0
					CHANNELS 3 Zrotation Yrotation Xrotation
					JOINT LeftShoulder
					{
						OFFSET 3.42372 1.09575 -0.28209
CHANNELS 3 Zrotation Xrotation Yrotation
						JOINT LeftElbow
						{
OFFSET 0 -4.956810 0.000000
CHANNELS 3 Zrotation Xrotation Yrotation
							JOINT LeftWrist
							{
OFFSET 0 -3.409150 0.000000
CHANNELS 3 Zrotation Xrotation Yrotation
								JOINT lhand
								{
									OFFSET 0 0 0
CHANNELS 3 Zrotation Xrotation Yrotation
									JOINT LFingers
									{
OFFSET 0 -0.616400 0.000000
CHANNELS 3 Zrotation Xrotation Yrotation
										End Site
										{
OFFSET 0 -0.496960 0.000000
										}
									}
								}
								JOINT LThumb
								{
OFFSET 0 0.000000 0.000000
CHANNELS 3 Zrotation Xrotation Yrotation
									End Site
									{
OFFSET 0 -0.504550 0.504550
									}
								}
							}
						}
					}
				}
				JOINT RightCollar
				{
					OFFSET 0 0 0
					CHANNELS 3 Zrotation Yrotation Xrotation
					JOINT RightShoulder
					{
						OFFSET -3.24731 1.15872 -0.32221
CHANNELS 3 Zrotation Xrotation Yrotation
						JOINT RightElbow
						{
OFFSET 0 -5.352000 0.000000
CHANNELS 3 Zrotation Xrotation Yrotation
							JOINT RightWrist
							{
OFFSET 0 -3.437210 -0.000000
CHANNELS 3 Zrotation Xrotation Yrotation
								JOINT rhand
								{
									OFFSET 0 0 0
CHANNELS 3 Zrotation Xrotation Yrotation
									JOINT RFingers
									{
OFFSET 0 -0.720090 0.000000
CHANNELS 3 Zrotation Xrotation Yrotation
										End Site
										{
OFFSET 0 -0.580560 0.000000
										}
									}
								}
								JOINT RThumb
								{
OFFSET 0 0.000000 0.000000
CHANNELS 3 Zrotation Xrotation Yrotation
									End Site
									{
OFFSET 0 -0.589420 0.589420
									}
								}
							}
						}
					}
				}
			}
		}
	}
}
MOTION
Frames: 7
Frame Time: 0.008333333333333333
30.225759 17.602483 -9.476160 -359.918337 235.726896 -0.449124 0.000000 0.000000 0.000000 -18.404142 -5.584118 -7.923019 2.168739 9.208958 26.451247 -0.174043 -14.981624 -8.461641 0.395154 4.023787 11.145199 0.000000 0.000000 0.000000 19.586011 -9.368919 -18.140006 -6.866803 -15.218545 48.368461 -1.345191 -1.771290 -22.633931 -0.216094 -2.984249 8.235423 1.541482 2.699366 5.804633 3.719555 3.611941 1.988874 2.716390 1.743081 -1.345770 -6.889714 2.204323 -14.171687 3.513303 2.537336 34.560320 2.896222 0.132691 13.974326 0.000000 0.000000 0.000000 1.666194 4.782082 -16.088322 14.696633 -23.721763 3.102890 17.248136 5.215916 -20.749557 0.000000 0.000000 0.000000 -7.125000 0.000000 0.000000 -11.436705 51.263649 1.784530 0.000000 0.000000 0.000000 -5.168690 -4.115660 16.907400 -17.728270 -27.807242 -4.422044 -21.746800 -14.379853 -11.597855 0.000000 0.000000 0.000000 7.125000 0.000000 0.000000 3.782082 17.536654 2.472098
30.254513 17.600510 -9.643993 -357.673341 242.994730 -2.985665 0.000000 0.000000 0.000000 -17.023669 -9.074357 -7.445510 2.340085 9.541138 27.503163 -0.500235 -17.999474 -7.357636 0.331930 3.699301 10.232618 0.000000 0.000000 0.000000 20.418290 -1.347962 -13.147042 -5.608130 -14.037055 43.387030 -1.632379 7.175023 -22.897894 0.000000 0.023723 -0.065251 2.375978 2.025766 6.370338 3.664934 2.819753 1.521771 2.219548 1.348468 -2.068658 -5.692228 2.659104 -13.390240 3.629797 3.079761 32.178726 2.746342 0.717058 12.753051 0.000000 0.000000 0.000000 3.261671 4.007051 -14.941812 13.762651 -22.394379 2.737069 19.408045 6.746614 -21.650512 0.000000 0.000000 0.000000 -7.125000 0.000000 0.000000 -9.640516 52.549675 1.804842 0.000000 0.000000 0.000000 -3.953280 -2.547279 19.294344 -20.951047 -31.770579 -6.024350 -21.648712 -16.846479 -11.501777 0.000000 0.000000 0.000000 7.125000 0.000000 0.000000 3.847386 17.647948 2.505640
30.293165 17.549105 -9.863731 -355.519514 250.648676 -5.707834 0.000000 0.000000 0.000000 -16.023003 -12.095706 -7.380364 2.504130 9.845326 28.477429 -1.220567 -22.403354 -4.248370 0.741534 5.500818 15.342793 0.000000 0.000000 0.000000 21.498775 6.668355 -7.318933 -4.434684 -12.717395 38.319495 -1.365699 13.228677 -21.533859 -0.013843 0.757170 -2.080806 1.998861 1.361092 5.629199 3.910614 1.833918 2.274208 2.789540 0.854263 -0.877357 -5.069242 3.680544 -13.636636 4.000024 4.774087 27.536247 2.890068 1.891623 10.874827 0.000000 0.000000 0.000000 3.597012 1.382635 -14.405660 13.624651 -22.195572 2.684661 19.294373 6.321187 -21.722470 0.000000 0.000000 0.000000 -7.125000 0.000000 0.000000 -9.780807 52.602746 1.844298 0.000000 0.000000 0.000000 -4.259429 -2.144284 21.633110 -23.866176 -35.022379 -7.629631 -21.588468 -18.019334 -11.254738 0.000000 0.000000 0.000000 7.125000 0.000000 0.000000 3.881613 17.916545 2.505072
30.349030 17.474823 -10.092185 -353.650925 257.229237 -7.717740 0.000000 0.000000 0.000000 -15.404452 -14.694432 -8.509527 2.763333 10.301673 29.959425 -1.996730 -26.021802 -0.821355 1.487668 7.705543 21.823213 0.000000 0.000000 0.000000 22.317603 8.170140 -4.166465 -3.650297 -11.679742 34.608395 -0.965792 13.361794 -18.619692 -0.088371 -1.899106 5.227391 2.907324 1.499586 6.077398 3.149279 2.141180 1.740990 1.454417 1.022158 -1.624161 -4.109286 4.618439 -11.937636 4.272869 5.981832 22.668269 2.760196 2.775932 8.766608 0.000000 0.000000 0.000000 5.461573 1.266439 -20.172307 15.124059 -24.318514 3.276948 19.087706 3.384768 -22.023666 0.000000 0.000000 0.000000 -7.125000 0.000000 0.000000 -10.101919 52.872237 1.972730 0.000000 0.000000 0.000000 -3.488142 0.323472 21.693767 -25.102286 -36.308282 -8.350419 -21.449587 -18.542122 -12.066078 0.000000 0.000000 0.000000 7.125000 0.000000 0.000000 4.006025 17.064923 2.660612
30.423479 17.457809 -10.300692 -349.719549 261.313207 -11.738620 0.000000 0.000000 0.000000 -14.845122 -17.944989 -8.289480 2.834624 10.422370 30.355589 -2.142584 -26.565983 -0.008246 1.761860 8.350822 23.785236 0.000000 0.000000 0.000000 23.176263 3.828493 -3.183904 -2.984815 -10.670297 31.175899 -1.157171 12.876173 -19.951736 -0.366094 -3.835487 10.620565 3.601422 2.043731 6.663298 2.925720 2.961096 1.448171 0.749546 1.424436 -2.208979 -4.064013 5.161546 -11.215366 3.871431 6.919518 19.461745 2.587241 3.289701 7.537554 0.000000 0.000000 0.000000 4.637037 0.957101 -20.698649 16.678281 -26.431341 3.943296 19.378504 4.094104 -21.394499 0.000000 0.000000 0.000000 -7.125000 0.000000 0.000000 -9.575390 52.283286 1.729196 0.000000 0.000000 0.000000 -3.891825 1.669089 22.587547 -22.995821 -34.083073 -7.136432 -21.014493 -18.398512 -12.093000 0.000000 0.000000 0.000000 7.125000 0.000000 0.000000 4.310048 17.076202 2.862612
30.525997 17.473625 -10.490140 -328.113733 262.736713 -32.269842 0.000000 0.000000 0.000000 -11.558565 -21.178924 -10.210178 3.242863 11.078086 32.543846 -1.874042 -25.631255 -1.677017 0.942520 6.178430 17.304506 0.000000 0.000000 0.000000 26.015986 2.537566 -3.866677 -2.615279 -10.044534 29.121026 -0.943846 13.718772 -18.552535 -0.505620 -4.558375 12.653103 6.415809 2.863212 6.439316 3.210792 4.233841 1.102769 -0.607756 2.026030 -2.241205 -4.030981 5.099829 -11.314576 3.426877 6.981930 17.608173 2.395174 3.338511 6.970214 0.000000 0.000000 0.000000 3.207066 1.389376 -20.204798 18.178960 -28.385327 4.634174 19.616329 3.021593 -20.367515 0.000000 0.000000 0.000000 -7.125000 0.000000 0.000000 -8.979852 51.272999 1.397048 0.000000 0.000000 0.000000 -4.714980 0.865055 22.630588 -17.821421 -27.925593 -4.466566 -19.621915 -15.536016 -10.897756 0.000000 0.000000 0.000000 7.125000 0.000000 0.000000 5.256719 18.455747 3.336888
30.590249 17.474945 -10.649772 -298.566611 264.508150 -61.582839 0.000000 0.000000 0.000000 -10.143603 -23.026764 -12.211040 3.742496 11.809506 35.061429 -1.700207 -24.471495 -1.560447 0.700442 5.347588 14.903143 0.000000 0.000000 0.000000 27.357124 -0.555407 -4.097843 -2.288605 -9.442979 27.191281 -1.011924 14.920009 -19.437584 -0.440279 -4.251615 11.786562 7.940397 3.140591 6.467868 3.205913 4.701854 1.068642 -1.480807 2.245595 -2.142426 -4.178884 4.635121 -11.568101 3.539222 6.401097 16.286535 2.380230 3.097105 6.604482 0.000000 0.000000 0.000000 2.138266 2.738174 -21.191491 18.962387 -29.371959 5.012390 18.672801 0.808972 -19.383865 0.000000 0.000000 0.000000 -7.125000 0.000000 0.000000 -9.574865 50.111010 1.215474 0.000000 0.000000 0.000000 -5.132692 -0.607075 18.282364 -13.148490 -21.503537 -2.508071 -17.460996 -9.580807 -10.777735 0.000000 0.000000 0.000000 7.125000 0.000000 0.000000 6.779944 18.738409 4.272331
